<svg xmlns="http://www.w3.org/2000/svg" viewBox="0 0 1600 1000"
     font-family="'Segoe UI','Noto Sans Arabic',sans-serif" width="1600" height="1000">
  
  <defs>
    <radialGradient id="gBg" cx="50%" cy="34%" r="85%">
      <stop offset="0%"  stop-color="#0e1016"/>
      <stop offset="55%" stop-color="#06070a"/>
      <stop offset="100%" stop-color="#000000"/>
    </radialGradient>
    <linearGradient id="gRoad" x1="0" y1="0" x2="0" y2="1">
      <stop offset="0%"  stop-color="#23262e"/>
      <stop offset="50%" stop-color="#1a1c22"/>
      <stop offset="100%" stop-color="#101218"/>
    </linearGradient>
    <linearGradient id="gHost" x1="0" y1="0" x2="0" y2="1">
      <stop offset="0%"  stop-color="#6fc0ff"/>
      <stop offset="45%" stop-color="#3f8fe6"/>
      <stop offset="100%" stop-color="#1f4f8f"/>
    </linearGradient>
    <linearGradient id="gThreat" x1="0" y1="0" x2="0" y2="1">
      <stop offset="0%"  stop-color="#2b2f38"/>
      <stop offset="45%" stop-color="#16181e"/>
      <stop offset="100%" stop-color="#08090c"/>
    </linearGradient>
    <linearGradient id="gNeutral" x1="0" y1="0" x2="0" y2="1">
      <stop offset="0%"  stop-color="#3a3f4a"/>
      <stop offset="50%" stop-color="#272b33"/>
      <stop offset="100%" stop-color="#15171c"/>
    </linearGradient>
    <linearGradient id="gTruck" x1="0" y1="0" x2="0" y2="1">
      <stop offset="0%"  stop-color="#5b6272"/>
      <stop offset="50%" stop-color="#454b57"/>
      <stop offset="100%" stop-color="#2b2f38"/>
    </linearGradient>
    <linearGradient id="gGlass" x1="0" y1="0" x2="1" y2="0">
      <stop offset="0%"  stop-color="#0b1622"/>
      <stop offset="50%" stop-color="#13283d"/>
      <stop offset="100%" stop-color="#0b1622"/>
    </linearGradient>
    <filter id="glowB" x="-60%" y="-60%" width="220%" height="220%">
      <feGaussianBlur stdDeviation="7" result="b"/>
      <feMerge><feMergeNode in="b"/><feMergeNode in="SourceGraphic"/></feMerge>
    </filter>
    <filter id="glowR" x="-80%" y="-80%" width="260%" height="260%">
      <feGaussianBlur stdDeviation="6" result="b"/>
      <feMerge><feMergeNode in="b"/><feMergeNode in="SourceGraphic"/></feMerge>
    </filter>
    <filter id="soft" x="-40%" y="-40%" width="180%" height="180%">
      <feDropShadow dx="0" dy="6" stdDeviation="10" flood-color="#000" flood-opacity="0.55"/>
    </filter>
    <marker id="arrow" viewBox="0 0 10 10" refX="8" refY="5" markerWidth="7"
            markerHeight="7" orient="auto-start-reverse">
      <path d="M0 0 L10 5 L0 10 z" fill="#4aa6ff"/>
    </marker>
    <marker id="arrowW" viewBox="0 0 10 10" refX="8" refY="5" markerWidth="7"
            markerHeight="7" orient="auto-start-reverse">
      <path d="M0 0 L10 5 L0 10 z" fill="#f5a623"/>
    </marker>
  </defs>
  <rect x="0" y="0" width="1600" height="1000" fill="url(#gBg)"/>
  <rect x="14" y="14" width="1572" height="972" rx="26" fill="none"
        stroke="#ffffff" stroke-opacity="0.06" stroke-width="1.5"/>

  <!-- header -->
  <text x="44" y="70" font-family="'Segoe UI','Noto Sans Arabic',sans-serif" font-size="50" font-weight="900" fill="#4aa6ff">IMA</text>
  <text x="46" y="100" font-family="'Segoe UI','Noto Sans Arabic',sans-serif" font-size="19" font-weight="600" fill="#8b93a0">Intersection Movement Assist</text>
  <text x="1556" y="78" font-family="'Segoe UI','Noto Sans Arabic',sans-serif" font-size="40" font-weight="800" fill="#e8eaed" text-anchor="end">Intersection Movement Assist</text>
  <line x1="44" y1="120" x2="1556" y2="120" stroke="#4aa6ff" stroke-opacity="0.25" stroke-width="2"/>

  <!-- scene -->
  <g><rect x="-60" y="350" width="1720" height="280" fill="url(#gRoad)"/><line x1="-60" y1="350" x2="1660" y2="350" stroke="#3a3f4a" stroke-width="4"/><line x1="-60" y1="630" x2="1660" y2="630" stroke="#3a3f4a" stroke-width="4"/><rect x="660" y="-60" width="280" height="1120" fill="url(#gRoad)"/><line x1="660" y1="-60" x2="660" y2="1060" stroke="#3a3f4a" stroke-width="4"/><line x1="940" y1="-60" x2="940" y2="1060" stroke="#3a3f4a" stroke-width="4"/><line x1="-60" y1="490" x2="660" y2="490" stroke="#525762" stroke-width="5" stroke-dasharray="46 38" stroke-linecap="round" opacity="0.85"/><line x1="940" y1="490" x2="1660" y2="490" stroke="#525762" stroke-width="5" stroke-dasharray="46 38" stroke-linecap="round" opacity="0.85"/><line x1="800" y1="-60" x2="800" y2="350" stroke="#525762" stroke-width="5" stroke-dasharray="46 38" stroke-linecap="round" opacity="0.85"/><line x1="800" y1="630" x2="800" y2="1060" stroke="#525762" stroke-width="5" stroke-dasharray="46 38" stroke-linecap="round" opacity="0.85"/><circle cx="800" cy="490" r="250" fill="none" stroke="#f5a623" stroke-opacity="0.4" stroke-dasharray="4 12" stroke-width="3"/><text x="800" y="328" font-family="'Segoe UI','Noto Sans Arabic',sans-serif" font-size="18" font-weight="700" fill="#f5a623" text-anchor="middle">20 m range from the intersection</text><circle cx="300" cy="490" r="54" fill="none" stroke="#7c5cff" stroke-width="2.6" stroke-dasharray="2 12" opacity="0.55"/><circle cx="300" cy="490" r="100" fill="none" stroke="#7c5cff" stroke-width="2.6" stroke-dasharray="2 12" opacity="0.45"/><circle cx="300" cy="490" r="150" fill="none" stroke="#7c5cff" stroke-width="2.6" stroke-dasharray="2 12" opacity="0.35"/><circle cx="300" cy="490" r="206" fill="none" stroke="#7c5cff" stroke-width="2.6" stroke-dasharray="2 12" opacity="0.25"/><circle cx="300" cy="490" r="270" fill="none" stroke="#7c5cff" stroke-width="2.6" stroke-dasharray="2 12" opacity="0.15"/><g transform="translate(300,214)"><rect x="-44" y="-26" width="88" height="26" rx="13" fill="#7c5cff" opacity="0.16"/><text x="0" y="-7" font-family="'Segoe UI','Noto Sans Arabic',sans-serif" font-size="15" font-weight="800" fill="#7c5cff" text-anchor="middle">V2V · DSRC</text></g>
  <g transform="translate(300,490) rotate(0) scale(1.0)" filter="url(#soft)">
    <rect x="-61" y="-46.0" width="34" height="14" rx="6" fill="#070809"/><rect x="-61" y="32.0" width="34" height="14" rx="6" fill="#070809"/><rect x="29" y="-46.0" width="34" height="14" rx="6" fill="#070809"/><rect x="29" y="32.0" width="34" height="14" rx="6" fill="#070809"/>
    
    <rect x="-75.0" y="-37.0" width="150" height="74" rx="26" ry="30"
          fill="url(#gThreat)" stroke="#3c424e" stroke-width="2"/>
    <rect x="-30" y="-25.0" width="74" height="50" rx="16"
          fill="url(#gGlass)" stroke="#0a141f" stroke-width="1.5"/>
    <line x1="44" y1="-24.0" x2="44" y2="24.0" stroke="#08121c" stroke-width="2"/>
    <rect x="59.0" y="-27.0" width="14" height="12" rx="3" fill="#ffe6a8"/>
    <rect x="59.0" y="15.0"  width="14" height="12" rx="3" fill="#ffe6a8"/>
    <rect x="-71.0" y="-28.0" width="9" height="14" rx="3" fill="#ff4d4f" opacity="0.95"/>
    <rect x="-71.0" y="14.0"  width="9" height="14" rx="3" fill="#ff4d4f" opacity="0.95"/>
    <line x1="-70.0" y1="0" x2="-70.0" y2="0" stroke="#ff4d4f" stroke-width="5"/>
  </g>
  <g transform="translate(800,820) rotate(-90) scale(1.0)" filter="url(#glowB)">
    <rect x="-61" y="-46.0" width="34" height="14" rx="6" fill="#070809"/><rect x="-61" y="32.0" width="34" height="14" rx="6" fill="#070809"/><rect x="29" y="-46.0" width="34" height="14" rx="6" fill="#070809"/><rect x="29" y="32.0" width="34" height="14" rx="6" fill="#070809"/>
    
    <rect x="-75.0" y="-37.0" width="150" height="74" rx="26" ry="30"
          fill="url(#gHost)" stroke="#bfe2ff" stroke-width="2"/>
    <rect x="-30" y="-25.0" width="74" height="50" rx="16"
          fill="url(#gGlass)" stroke="#0a141f" stroke-width="1.5"/>
    <line x1="44" y1="-24.0" x2="44" y2="24.0" stroke="#08121c" stroke-width="2"/>
    <rect x="59.0" y="-27.0" width="14" height="12" rx="3" fill="#eaf6ff"/>
    <rect x="59.0" y="15.0"  width="14" height="12" rx="3" fill="#eaf6ff"/>
    <rect x="-71.0" y="-28.0" width="9" height="14" rx="3" fill="#ff4d4f" opacity="0.95"/>
    <rect x="-71.0" y="14.0"  width="9" height="14" rx="3" fill="#ff4d4f" opacity="0.95"/>
    <line x1="-70.0" y1="0" x2="-70.0" y2="0" stroke="#ff4d4f" stroke-width="5"/>
  </g><polygon points="800.0,452.0 806.7,473.9 826.9,463.1 816.1,483.3 838.0,490.0 816.1,496.7 826.9,516.9 806.7,506.1 800.0,528.0 793.3,506.1 773.1,516.9 783.9,496.7 762.0,490.0 783.9,483.3 773.1,463.1 793.3,473.9" fill="#ff4d4f" opacity="0.9" filter="url(#glowR)"/><text x="800" y="496" font-family="'Segoe UI','Noto Sans Arabic',sans-serif" font-size="22" font-weight="900" fill="#fff" text-anchor="middle">!</text><g transform="translate(800,955)"><rect x="-53.0" y="-18" width="106" height="32" rx="16" fill="rgba(0,0,0,0.55)" stroke="#4aa6ff" stroke-opacity="0.45" stroke-width="1.5"/><text x="0" y="4" font-family="'Segoe UI','Noto Sans Arabic',sans-serif" font-size="18" font-weight="700" fill="#4aa6ff" text-anchor="middle">Your car</text></g><g transform="translate(300,340)"><rect x="-158.0" y="-18" width="316" height="32" rx="16" fill="rgba(0,0,0,0.55)" stroke="#ff4d4f" stroke-opacity="0.45" stroke-width="1.5"/><text x="0" y="4" font-family="'Segoe UI','Noto Sans Arabic',sans-serif" font-size="18" font-weight="700" fill="#ff4d4f" text-anchor="middle">Car from a crossing direction</text></g></g>

  <!-- caption -->
  <rect x="14" y="862" width="1572" height="124" rx="22"
        fill="rgba(6,8,12,0.85)" stroke="#ffffff" stroke-opacity="0.06" stroke-width="1.5"/>
  <text x="44" y="906" font-family="'Segoe UI','Noto Sans Arabic',sans-serif" font-size="23" font-weight="600"
        fill="#e8eaed" text-anchor="start">When approaching an intersection (within 20 m) it detects a car coming from a crossing direction, computes the time to arrival, and warns you of a collision risk.</text>
  <g transform="translate(44,928)"><rect x="0" y="0" width="151" height="40" rx="20" fill="#f5a623" fill-opacity="0.14" stroke="#f5a623" stroke-opacity="0.55" stroke-width="1.5"/><circle cx="22" cy="20" r="6" fill="#f5a623"/><text x="38" y="26" font-family="'Segoe UI','Noto Sans Arabic',sans-serif" font-size="17" font-weight="700" fill="#f5a623">within 20 m</text></g><g transform="translate(207,928)"><rect x="0" y="0" width="195" height="40" rx="20" fill="#ff4d4f" fill-opacity="0.14" stroke="#ff4d4f" stroke-opacity="0.55" stroke-width="1.5"/><circle cx="22" cy="20" r="6" fill="#ff4d4f"/><text x="38" y="26" font-family="'Segoe UI','Noto Sans Arabic',sans-serif" font-size="17" font-weight="700" fill="#ff4d4f">delay ≤ 4s / 2s</text></g><g transform="translate(414,928)"><rect x="0" y="0" width="228" height="40" rx="20" fill="#4aa6ff" fill-opacity="0.14" stroke="#4aa6ff" stroke-opacity="0.55" stroke-width="1.5"/><circle cx="22" cy="20" r="6" fill="#4aa6ff"/><text x="38" y="26" font-family="'Segoe UI','Noto Sans Arabic',sans-serif" font-size="17" font-weight="700" fill="#4aa6ff">crossing direction</text></g><g transform="translate(654,928)"><rect x="0" y="0" width="140" height="40" rx="20" fill="#7c5cff" fill-opacity="0.14" stroke="#7c5cff" stroke-opacity="0.55" stroke-width="1.5"/><circle cx="22" cy="20" r="6" fill="#7c5cff"/><text x="38" y="26" font-family="'Segoe UI','Noto Sans Arabic',sans-serif" font-size="17" font-weight="700" fill="#7c5cff">V2V · DSRC</text></g>
</svg>