<?xml version="1.0" encoding="UTF-8" standalone="no"?>
<!DOCTYPE svg PUBLIC "-//W3C//DTD SVG 1.1//EN"
 "http://www.w3.org/Graphics/SVG/1.1/DTD/svg11.dtd">
<!-- Generated by graphviz version 14.1.4 (20260321.0153)
 -->
<!-- Title: V2V&#45;STM32/Src/EEBL_program.c Pages: 1 -->
<svg width="514pt" height="376pt"
 viewBox="0.00 0.00 514.00 376.00" xmlns="http://www.w3.org/2000/svg" xmlns:xlink="http://www.w3.org/1999/xlink">
<g id="graph0" class="graph" transform="scale(1 1) rotate(0) translate(4 372.25)">
<title>V2V&#45;STM32/Src/EEBL_program.c</title>
<!-- Node1 -->
<g id="Node000001" class="node">
<title>Node1</title>
<g id="a_Node000001"><a xlink:title="Implementation of the EEBL driver — Electronic Emergency Brake Light.">
<polygon fill="#999999" stroke="#666666" points="261.29,-368.25 144.79,-368.25 144.79,-334.75 261.29,-334.75 261.29,-368.25"/>
<text xml:space="preserve" text-anchor="start" x="152.79" y="-354.75" font-family="Helvetica,sans-Serif" font-size="10.00">V2V&#45;STM32/Src/EEBL</text>
<text xml:space="preserve" text-anchor="middle" x="203.04" y="-342" font-family="Helvetica,sans-Serif" font-size="10.00">_program.c</text>
</a>
</g>
</g>
<!-- Node2 -->
<g id="Node000002" class="node">
<title>Node2</title>
<g id="a_Node000002"><a xlink:href="EEBL__interface_8h.html" target="_top" xlink:title="Public API of the EEBL driver — Electronic Emergency Brake Light.">
<polygon fill="white" stroke="#666666" points="448.92,-298.75 321.17,-298.75 321.17,-265.25 448.92,-265.25 448.92,-298.75"/>
<text xml:space="preserve" text-anchor="start" x="329.17" y="-285.25" font-family="Helvetica,sans-Serif" font-size="10.00">../Inc/Application</text>
<text xml:space="preserve" text-anchor="middle" x="385.04" y="-272.5" font-family="Helvetica,sans-Serif" font-size="10.00">/EEBL/EEBL_interface.h</text>
</a>
</g>
</g>
<!-- Node1&#45;&gt;Node2 -->
<g id="edge1_Node000001_Node000002" class="edge">
<title>Node1&#45;&gt;Node2</title>
<g id="a_edge1_Node000001_Node000002"><a xlink:title=" ">
<path fill="none" stroke="#63b8ff" d="M246.64,-334.33C271.87,-324.97 303.85,-313.11 330.71,-303.15"/>
<polygon fill="#63b8ff" stroke="#63b8ff" points="331.91,-306.44 340.07,-299.68 329.48,-299.87 331.91,-306.44"/>
</a>
</g>
</g>
<!-- Node4 -->
<g id="Node000004" class="node">
<title>Node4</title>
<g id="a_Node000004"><a xlink:href="DSRC_8h.html" target="_top" xlink:title="The V2V transport: the neighbor table and the over&#45;the&#45;air frame format shared with the ESP32 radio b...">
<polygon fill="white" stroke="#666666" points="505.54,-222.88 414.54,-222.88 414.54,-202.12 505.54,-202.12 505.54,-222.88"/>
<text xml:space="preserve" text-anchor="middle" x="460.04" y="-209.38" font-family="Helvetica,sans-Serif" font-size="10.00">../DSRC/DSRC.h</text>
</a>
</g>
</g>
<!-- Node1&#45;&gt;Node4 -->
<g id="edge17_Node000001_Node000004" class="edge">
<title>Node1&#45;&gt;Node4</title>
<g id="a_edge17_Node000001_Node000004"><a xlink:title=" ">
<path fill="none" stroke="#63b8ff" d="M261.7,-346.87C329.03,-341.35 433.4,-328.19 458.04,-298.75 472.86,-281.06 470.37,-253.31 466.17,-234.31"/>
<polygon fill="#63b8ff" stroke="#63b8ff" points="469.58,-233.55 463.69,-224.74 462.81,-235.3 469.58,-233.55"/>
</a>
</g>
</g>
<!-- Node7 -->
<g id="Node000007" class="node">
<title>Node7</title>
<g id="a_Node000007"><a xlink:href="SafetyEngine__interface_8h.html" target="_top" xlink:title="Public API of the SafetyEngine driver — the shared risk model and per&#45;cycle ADAS orchestration.">
<polygon fill="white" stroke="#666666" points="308.54,-229.25 151.54,-229.25 151.54,-195.75 308.54,-195.75 308.54,-229.25"/>
<text xml:space="preserve" text-anchor="start" x="159.54" y="-215.75" font-family="Helvetica,sans-Serif" font-size="10.00">../SafetyEngine/SafetyEngine</text>
<text xml:space="preserve" text-anchor="middle" x="230.04" y="-203" font-family="Helvetica,sans-Serif" font-size="10.00">_interface.h</text>
</a>
</g>
</g>
<!-- Node1&#45;&gt;Node7 -->
<g id="edge19_Node000001_Node000007" class="edge">
<title>Node1&#45;&gt;Node7</title>
<g id="a_edge19_Node000001_Node000007"><a xlink:title=" ">
<path fill="none" stroke="#63b8ff" d="M192.62,-334.41C182.71,-316.99 170.62,-288.56 180.04,-265.25 184.28,-254.76 191.78,-245.22 199.7,-237.27"/>
<polygon fill="#63b8ff" stroke="#63b8ff" points="201.92,-239.97 206.87,-230.61 197.16,-234.84 201.92,-239.97"/>
</a>
</g>
</g>
<!-- Node8 -->
<g id="Node000008" class="node">
<title>Node8</title>
<g id="a_Node000008"><a xlink:href="EEBL__config_8h.html" target="_top" xlink:title="Compile&#45;time configuration for the EEBL driver — Electronic Emergency Brake Light.">
<polygon fill="white" stroke="#666666" points="302.79,-298.75 189.29,-298.75 189.29,-265.25 302.79,-265.25 302.79,-298.75"/>
<text xml:space="preserve" text-anchor="start" x="197.29" y="-285.25" font-family="Helvetica,sans-Serif" font-size="10.00">../Inc/Application</text>
<text xml:space="preserve" text-anchor="middle" x="246.04" y="-272.5" font-family="Helvetica,sans-Serif" font-size="10.00">/EEBL/EEBL_config.h</text>
</a>
</g>
</g>
<!-- Node1&#45;&gt;Node8 -->
<g id="edge8_Node000001_Node000008" class="edge">
<title>Node1&#45;&gt;Node8</title>
<g id="a_edge8_Node000001_Node000008"><a xlink:title=" ">
<path fill="none" stroke="#63b8ff" d="M213.23,-334.5C218.21,-326.69 224.33,-317.09 229.92,-308.31"/>
<polygon fill="#63b8ff" stroke="#63b8ff" points="232.69,-310.47 235.11,-300.16 226.79,-306.71 232.69,-310.47"/>
</a>
</g>
</g>
<!-- Node9 -->
<g id="Node000009" class="node">
<title>Node9</title>
<g id="a_Node000009"><a xlink:href="EEBL__private_8h.html" target="_top" xlink:title="Register bit positions and internals of the EEBL driver — not a public header.">
<polygon fill="white" stroke="#666666" points="133.42,-298.75 14.67,-298.75 14.67,-265.25 133.42,-265.25 133.42,-298.75"/>
<text xml:space="preserve" text-anchor="start" x="22.67" y="-285.25" font-family="Helvetica,sans-Serif" font-size="10.00">../Inc/Application</text>
<text xml:space="preserve" text-anchor="middle" x="74.04" y="-272.5" font-family="Helvetica,sans-Serif" font-size="10.00">/EEBL/EEBL_private.h</text>
</a>
</g>
</g>
<!-- Node1&#45;&gt;Node9 -->
<g id="edge9_Node000001_Node000009" class="edge">
<title>Node1&#45;&gt;Node9</title>
<g id="a_edge9_Node000001_Node000009"><a xlink:title=" ">
<path fill="none" stroke="#63b8ff" d="M172.15,-334.33C154.91,-325.32 133.24,-313.98 114.65,-304.25"/>
<polygon fill="#63b8ff" stroke="#63b8ff" points="116.51,-301.27 106.03,-299.74 113.27,-307.48 116.51,-301.27"/>
</a>
</g>
</g>
<!-- Node10 -->
<g id="Node000010" class="node">
<title>Node10</title>
<g id="a_Node000010"><a xlink:href="System_8h.html" target="_top" xlink:title="System&#45;wide contract: the board wiring map, the shared vehicle state, the packed ADAS status word,...">
<polygon fill="white" stroke="#666666" points="133.79,-222.88 14.29,-222.88 14.29,-202.12 133.79,-202.12 133.79,-222.88"/>
<text xml:space="preserve" text-anchor="middle" x="74.04" y="-209.38" font-family="Helvetica,sans-Serif" font-size="10.00">../../System/System.h</text>
</a>
</g>
</g>
<!-- Node1&#45;&gt;Node10 -->
<g id="edge18_Node000001_Node000010" class="edge">
<title>Node1&#45;&gt;Node10</title>
<g id="a_edge18_Node000001_Node000010"><a xlink:title=" ">
<path fill="none" stroke="#63b8ff" d="M144.56,-343.05C92.8,-335.12 22.94,-320.66 6.04,-298.75 -3.05,-286.96 -0.57,-278.59 6.04,-265.25 13.78,-249.63 28.74,-237.45 42.66,-228.84"/>
<polygon fill="#63b8ff" stroke="#63b8ff" points="44.25,-231.97 51.18,-223.96 40.77,-225.89 44.25,-231.97"/>
</a>
</g>
</g>
<!-- Node3 -->
<g id="Node000003" class="node">
<title>Node3</title>
<g id="a_Node000003"><a xlink:title=" ">
<polygon fill="#e0e0e0" stroke="#999999" points="323.42,-20.75 270.67,-20.75 270.67,0 323.42,0 323.42,-20.75"/>
<text xml:space="preserve" text-anchor="middle" x="297.04" y="-7.25" font-family="Helvetica,sans-Serif" font-size="10.00">stdint.h</text>
</a>
</g>
</g>
<!-- Node2&#45;&gt;Node3 -->
<g id="edge2_Node000002_Node000003" class="edge">
<title>Node2&#45;&gt;Node3</title>
<g id="a_edge2_Node000002_Node000003"><a xlink:title=" ">
<path fill="none" stroke="#63b8ff" d="M379.8,-264.94C364.63,-218.45 320.66,-83.74 303.77,-31.98"/>
<polygon fill="#63b8ff" stroke="#63b8ff" points="307.15,-31.07 300.72,-22.65 300.5,-33.24 307.15,-31.07"/>
</a>
</g>
</g>
<!-- Node2&#45;&gt;Node4 -->
<g id="edge3_Node000002_Node000004" class="edge">
<title>Node2&#45;&gt;Node4</title>
<g id="a_edge3_Node000002_Node000004"><a xlink:title=" ">
<path fill="none" stroke="#63b8ff" d="M402.82,-265C414.28,-254.69 429.17,-241.28 440.9,-230.73"/>
<polygon fill="#63b8ff" stroke="#63b8ff" points="442.91,-233.63 448.01,-224.33 438.23,-228.42 442.91,-233.63"/>
</a>
</g>
</g>
<!-- Node2&#45;&gt;Node7 -->
<g id="edge7_Node000002_Node000007" class="edge">
<title>Node2&#45;&gt;Node7</title>
<g id="a_edge7_Node000002_Node000007"><a xlink:title=" ">
<path fill="none" stroke="#63b8ff" d="M347.92,-264.83C326.81,-255.64 300.16,-244.03 277.54,-234.18"/>
<polygon fill="#63b8ff" stroke="#63b8ff" points="279.09,-231.04 268.52,-230.26 276.29,-237.46 279.09,-231.04"/>
</a>
</g>
</g>
<!-- Node4&#45;&gt;Node3 -->
<g id="edge5_Node000004_Node000003" class="edge">
<title>Node4&#45;&gt;Node3</title>
<g id="a_edge5_Node000004_Node000003"><a xlink:title=" ">
<path fill="none" stroke="#63b8ff" d="M469.8,-201.65C484.69,-185.36 509.9,-152.04 495.04,-126.25 460.6,-66.44 381.76,-34.91 334.61,-20.82"/>
<polygon fill="#63b8ff" stroke="#63b8ff" points="335.67,-17.48 325.1,-18.1 333.75,-24.21 335.67,-17.48"/>
</a>
</g>
</g>
<!-- Node5 -->
<g id="Node000005" class="node">
<title>Node5</title>
<g id="a_Node000005"><a xlink:title=" ">
<polygon fill="#e0e0e0" stroke="#999999" points="415.29,-153.38 364.79,-153.38 364.79,-132.62 415.29,-132.62 415.29,-153.38"/>
<text xml:space="preserve" text-anchor="middle" x="390.04" y="-139.88" font-family="Helvetica,sans-Serif" font-size="10.00">math.h</text>
</a>
</g>
</g>
<!-- Node4&#45;&gt;Node5 -->
<g id="edge4_Node000004_Node000005" class="edge">
<title>Node4&#45;&gt;Node5</title>
<g id="a_edge4_Node000004_Node000005"><a xlink:title=" ">
<path fill="none" stroke="#63b8ff" d="M450.01,-201.83C439.1,-191.3 421.42,-174.26 408.08,-161.39"/>
<polygon fill="#63b8ff" stroke="#63b8ff" points="410.77,-159.13 401.14,-154.7 405.91,-164.16 410.77,-159.13"/>
</a>
</g>
</g>
<!-- Node6 -->
<g id="Node000006" class="node">
<title>Node6</title>
<g id="a_Node000006"><a xlink:title=" ">
<polygon fill="#e0e0e0" stroke="#999999" points="486.42,-153.38 433.67,-153.38 433.67,-132.62 486.42,-132.62 486.42,-153.38"/>
<text xml:space="preserve" text-anchor="middle" x="460.04" y="-139.88" font-family="Helvetica,sans-Serif" font-size="10.00">string.h</text>
</a>
</g>
</g>
<!-- Node4&#45;&gt;Node6 -->
<g id="edge6_Node000004_Node000006" class="edge">
<title>Node4&#45;&gt;Node6</title>
<g id="a_edge6_Node000004_Node000006"><a xlink:title=" ">
<path fill="none" stroke="#63b8ff" d="M460.04,-201.83C460.04,-192.21 460.04,-177.13 460.04,-164.79"/>
<polygon fill="#63b8ff" stroke="#63b8ff" points="463.54,-165.17 460.04,-155.17 456.54,-165.17 463.54,-165.17"/>
</a>
</g>
</g>
<!-- Node9&#45;&gt;Node10 -->
<g id="edge10_Node000009_Node000010" class="edge">
<title>Node9&#45;&gt;Node10</title>
<g id="a_edge10_Node000009_Node000010"><a xlink:title=" ">
<path fill="none" stroke="#63b8ff" d="M74.04,-265C74.04,-255.9 74.04,-244.39 74.04,-234.57"/>
<polygon fill="#63b8ff" stroke="#63b8ff" points="77.54,-234.84 74.04,-224.84 70.54,-234.84 77.54,-234.84"/>
</a>
</g>
</g>
<!-- Node10&#45;&gt;Node3 -->
<g id="edge11_Node000010_Node000003" class="edge">
<title>Node10&#45;&gt;Node3</title>
<g id="a_edge11_Node000010_Node000003"><a xlink:title=" ">
<path fill="none" stroke="#63b8ff" d="M91.57,-201.74C123.96,-183.1 194.27,-139.87 242.04,-90.25 259.71,-71.9 275.85,-47.4 286.02,-30.61"/>
<polygon fill="#63b8ff" stroke="#63b8ff" points="288.95,-32.52 291.02,-22.13 282.92,-28.96 288.95,-32.52"/>
</a>
</g>
</g>
<!-- Node11 -->
<g id="Node000011" class="node">
<title>Node11</title>
<g id="a_Node000011"><a xlink:href="LED__interface_8h.html" target="_top" xlink:title="Public API of the LED driver — the indicator LEDs.">
<polygon fill="white" stroke="#666666" points="141.29,-159.75 36.79,-159.75 36.79,-126.25 141.29,-126.25 141.29,-159.75"/>
<text xml:space="preserve" text-anchor="start" x="44.79" y="-146.25" font-family="Helvetica,sans-Serif" font-size="10.00">../Drivers/HAL/LED</text>
<text xml:space="preserve" text-anchor="middle" x="89.04" y="-133.5" font-family="Helvetica,sans-Serif" font-size="10.00">/LED_interface.h</text>
</a>
</g>
</g>
<!-- Node10&#45;&gt;Node11 -->
<g id="edge12_Node000010_Node000011" class="edge">
<title>Node10&#45;&gt;Node11</title>
<g id="a_edge12_Node000010_Node000011"><a xlink:title=" ">
<path fill="none" stroke="#63b8ff" d="M76.19,-201.83C77.97,-193.85 80.57,-182.13 82.97,-171.32"/>
<polygon fill="#63b8ff" stroke="#63b8ff" points="86.37,-172.17 85.12,-161.65 79.54,-170.65 86.37,-172.17"/>
</a>
</g>
</g>
<!-- Node12 -->
<g id="Node000012" class="node">
<title>Node12</title>
<g id="a_Node000012"><a xlink:href="GPIO__interface_8h.html" target="_top" xlink:title="Public API of the GPIO driver: pin/port configuration and I/O.">
<polygon fill="white" stroke="#666666" points="232.92,-90.25 117.17,-90.25 117.17,-56.75 232.92,-56.75 232.92,-90.25"/>
<text xml:space="preserve" text-anchor="start" x="125.17" y="-76.75" font-family="Helvetica,sans-Serif" font-size="10.00">../../MCAL/GPIO/GPIO</text>
<text xml:space="preserve" text-anchor="middle" x="175.04" y="-64" font-family="Helvetica,sans-Serif" font-size="10.00">_interface.h</text>
</a>
</g>
</g>
<!-- Node11&#45;&gt;Node12 -->
<g id="edge13_Node000011_Node000012" class="edge">
<title>Node11&#45;&gt;Node12</title>
<g id="a_edge13_Node000011_Node000012"><a xlink:title=" ">
<path fill="none" stroke="#63b8ff" d="M109.43,-126C120.27,-117.49 133.8,-106.87 145.75,-97.49"/>
<polygon fill="#63b8ff" stroke="#63b8ff" points="147.62,-100.48 153.32,-91.55 143.29,-94.97 147.62,-100.48"/>
</a>
</g>
</g>
<!-- Node13 -->
<g id="Node000013" class="node">
<title>Node13</title>
<g id="a_Node000013"><a xlink:href="ErrTypes_8h.html" target="_top" xlink:title="Project&#45;wide return codes and boolean&#45;style constants.">
<polygon fill="white" stroke="#666666" points="214.17,-20.75 111.92,-20.75 111.92,0 214.17,0 214.17,-20.75"/>
<text xml:space="preserve" text-anchor="middle" x="163.04" y="-7.25" font-family="Helvetica,sans-Serif" font-size="10.00">../../LIB/ErrTypes.h</text>
</a>
</g>
</g>
<!-- Node11&#45;&gt;Node13 -->
<g id="edge16_Node000011_Node000013" class="edge">
<title>Node11&#45;&gt;Node13</title>
<g id="a_edge16_Node000011_Node000013"><a xlink:title=" ">
<path fill="none" stroke="#63b8ff" d="M89.56,-125.75C90.8,-107.68 94.88,-78.21 108.04,-56.75 115.18,-45.12 126.37,-35.09 136.8,-27.44"/>
<polygon fill="#63b8ff" stroke="#63b8ff" points="138.51,-30.51 144.78,-21.96 134.55,-24.74 138.51,-30.51"/>
</a>
</g>
</g>
<!-- Node12&#45;&gt;Node3 -->
<g id="edge15_Node000012_Node000003" class="edge">
<title>Node12&#45;&gt;Node3</title>
<g id="a_edge15_Node000012_Node000003"><a xlink:title=" ">
<path fill="none" stroke="#63b8ff" d="M207.42,-56.28C225.98,-46.98 249.11,-35.39 267.23,-26.31"/>
<polygon fill="#63b8ff" stroke="#63b8ff" points="268.78,-29.45 276.15,-21.84 265.64,-23.19 268.78,-29.45"/>
</a>
</g>
</g>
<!-- Node12&#45;&gt;Node13 -->
<g id="edge14_Node000012_Node000013" class="edge">
<title>Node12&#45;&gt;Node13</title>
<g id="a_edge14_Node000012_Node000013"><a xlink:title=" ">
<path fill="none" stroke="#63b8ff" d="M171.89,-56.44C170.45,-49.1 168.73,-40.32 167.18,-32.46"/>
<polygon fill="#63b8ff" stroke="#63b8ff" points="170.63,-31.84 165.27,-22.7 163.76,-33.19 170.63,-31.84"/>
</a>
</g>
</g>
</g>
</svg>
