<?xml version="1.0" encoding="UTF-8" standalone="no"?>
<!DOCTYPE svg PUBLIC "-//W3C//DTD SVG 1.1//EN"
 "http://www.w3.org/Graphics/SVG/1.1/DTD/svg11.dtd">
<!-- Generated by graphviz version 14.1.4 (20260321.0153)
 -->
<!-- Title: V2V&#45;STM32/Src/IWDG_program.c Pages: 1 -->
<svg width="184pt" height="168pt"
 viewBox="0.00 0.00 184.00 168.00" xmlns="http://www.w3.org/2000/svg" xmlns:xlink="http://www.w3.org/1999/xlink">

<svg id="main" version="1.1" xmlns="http://www.w3.org/2000/svg" xmlns:xlink="http://www.w3.org/1999/xlink" xml:space="preserve">

<style type="text/css"><![CDATA[
.node, .edge {opacity: 0.7;}
.node.selected, .edge.selected {opacity: 1;}
.edge:hover path { stroke: red; }
.edge:hover polygon { stroke: red; fill: red; }
]]></style>
<script type="application/ecmascript" xlink:href="svg.min.js"/>
<svg id="graph" class="graph">
<g id="graph0" class="graph" transform="scale(1 1) rotate(0) translate(4 163.75)">
<title>V2V&#45;STM32/Src/IWDG_program.c</title>
<!-- Node1 -->
<g id="Node000001" class="node">
<title>Node1</title>
<g id="a_Node000001"><a xlink:title="Implementation of the IWDG driver — the independent watchdog.">
<polygon fill="#999999" stroke="#666666" points="120.25,-159.75 0,-159.75 0,-126.25 120.25,-126.25 120.25,-159.75"/>
<text xml:space="preserve" text-anchor="start" x="8" y="-146.25" font-family="Helvetica,sans-Serif" font-size="10.00">V2V&#45;STM32/Src/IWDG</text>
<text xml:space="preserve" text-anchor="middle" x="60.12" y="-133.5" font-family="Helvetica,sans-Serif" font-size="10.00">_program.c</text>
</a>
</g>
</g>
<!-- Node2 -->
<g id="Node000002" class="node">
<title>Node2</title>
<g id="a_Node000002"><a xlink:title=" ">
<polygon fill="#e0e0e0" stroke="#999999" points="86.5,-20.75 33.75,-20.75 33.75,0 86.5,0 86.5,-20.75"/>
<text xml:space="preserve" text-anchor="middle" x="60.12" y="-7.25" font-family="Helvetica,sans-Serif" font-size="10.00">stdint.h</text>
</a>
</g>
</g>
<!-- Node1&#45;&gt;Node2 -->
<g id="edge1_Node000001_Node000002" class="edge">
<title>Node1&#45;&gt;Node2</title>
<g id="a_edge1_Node000001_Node000002"><a xlink:title=" ">
<path fill="none" stroke="#63b8ff" d="M48.42,-126.15C41.93,-116.35 34.51,-103.2 31.12,-90.25 27.36,-75.84 26.95,-71.04 31.12,-56.75 33.9,-47.27 39.32,-37.88 44.74,-30.13"/>
<polygon fill="#63b8ff" stroke="#63b8ff" points="47.48,-32.3 50.72,-22.21 41.9,-28.08 47.48,-32.3"/>
</a>
</g>
</g>
<!-- Node3 -->
<g id="Node000003" class="node">
<title>Node3</title>
<g id="a_Node000003"><a xlink:href="IWDG__interface_8h.html" target="_top" xlink:title="Public API of the IWDG driver — the independent watchdog.">
<polygon fill="white" stroke="#666666" points="175.75,-90.25 40.5,-90.25 40.5,-56.75 175.75,-56.75 175.75,-90.25"/>
<text xml:space="preserve" text-anchor="start" x="48.5" y="-76.75" font-family="Helvetica,sans-Serif" font-size="10.00">../Inc/Drivers/MCAL</text>
<text xml:space="preserve" text-anchor="middle" x="108.12" y="-64" font-family="Helvetica,sans-Serif" font-size="10.00">/IWDG/IWDG_interface.h</text>
</a>
</g>
</g>
<!-- Node1&#45;&gt;Node3 -->
<g id="edge2_Node000001_Node000003" class="edge">
<title>Node1&#45;&gt;Node3</title>
<g id="a_edge2_Node000001_Node000003"><a xlink:title=" ">
<path fill="none" stroke="#63b8ff" d="M71.5,-126C77.12,-118.1 84.03,-108.38 90.33,-99.53"/>
<polygon fill="#63b8ff" stroke="#63b8ff" points="93.01,-101.79 95.95,-91.62 87.31,-97.74 93.01,-101.79"/>
</a>
</g>
</g>
<!-- Node3&#45;&gt;Node2 -->
<g id="edge3_Node000003_Node000002" class="edge">
<title>Node3&#45;&gt;Node2</title>
<g id="a_edge3_Node000003_Node000002"><a xlink:title=" ">
<path fill="none" stroke="#63b8ff" d="M95.51,-56.44C89.2,-48.41 81.53,-38.63 74.94,-30.24"/>
<polygon fill="#63b8ff" stroke="#63b8ff" points="77.72,-28.11 68.79,-22.41 72.21,-32.43 77.72,-28.11"/>
</a>
</g>
</g>
</g>
</svg>
</svg>

<style type='text/css'>
<![CDATA[
[data-mouse-over-selected='false'] { opacity: 0.7; }
[data-mouse-over-selected='true']  { opacity: 1.0; }
]]>
</style>
<script type="application/ecmascript"><![CDATA[
document.addEventListener('DOMContentLoaded', (event) => {
  highlightEdges();
  highlightAdjacentNodes();
});
]]></script>
</svg>
