<?xml version="1.0" encoding="UTF-8" standalone="no"?>
<!DOCTYPE svg PUBLIC "-//W3C//DTD SVG 1.1//EN"
 "http://www.w3.org/Graphics/SVG/1.1/DTD/svg11.dtd">
<!-- Generated by graphviz version 14.1.4 (20260321.0153)
 -->
<!-- Title: V2V&#45;STM32/Inc/Drivers/LIB/STD_MACROS.h Pages: 1 -->
<svg width="890pt" height="237pt"
 viewBox="0.00 0.00 890.00 237.00" xmlns="http://www.w3.org/2000/svg" xmlns:xlink="http://www.w3.org/1999/xlink">
<g id="graph0" class="graph" transform="scale(1 1) rotate(0) translate(4 233.25)">
<title>V2V&#45;STM32/Inc/Drivers/LIB/STD_MACROS.h</title>
<!-- Node1 -->
<g id="Node000001" class="node">
<title>Node1</title>
<g id="a_Node000001"><a xlink:title="Bit&#45;manipulation macros used by every register access in the MCAL.">
<polygon fill="#999999" stroke="#666666" points="467.12,-229.25 340.12,-229.25 340.12,-195.75 467.12,-195.75 467.12,-229.25"/>
<text xml:space="preserve" text-anchor="start" x="348.12" y="-215.75" font-family="Helvetica,sans-Serif" font-size="10.00">V2V&#45;STM32/Inc/Drivers</text>
<text xml:space="preserve" text-anchor="middle" x="403.62" y="-203" font-family="Helvetica,sans-Serif" font-size="10.00">/LIB/STD_MACROS.h</text>
</a>
</g>
</g>
<!-- Node2 -->
<g id="Node000002" class="node">
<title>Node2</title>
<g id="a_Node000002"><a xlink:href="US__interface_8h.html" target="_top" xlink:title="Public API of the US driver — the HC&#45;SR04 ultrasonic rangefinders.">
<polygon fill="white" stroke="#666666" points="266.25,-90.25 137,-90.25 137,-56.75 266.25,-56.75 266.25,-90.25"/>
<text xml:space="preserve" text-anchor="start" x="145" y="-76.75" font-family="Helvetica,sans-Serif" font-size="10.00">V2V&#45;STM32/Inc/Drivers</text>
<text xml:space="preserve" text-anchor="middle" x="201.62" y="-64" font-family="Helvetica,sans-Serif" font-size="10.00">/HAL/US/US_interface.h</text>
</a>
</g>
</g>
<!-- Node1&#45;&gt;Node2 -->
<g id="edge1_Node000001_Node000002" class="edge">
<title>Node1&#45;&gt;Node2</title>
<g id="a_edge1_Node000001_Node000002"><a xlink:title=" ">
<path fill="none" stroke="#63b8ff" d="M328.34,-207.85C291.08,-202.12 248.27,-189 220.62,-159.75 202.92,-141.02 200.35,-109.57 200.62,-90.56"/>
<polygon fill="#63b8ff" stroke="#63b8ff" points="327.82,-211.31 338.2,-209.2 328.77,-204.38 327.82,-211.31"/>
</a>
</g>
</g>
<!-- Node4 -->
<g id="Node000004" class="node">
<title>Node4</title>
<g id="a_Node000004"><a xlink:href="US__prog_8c.html" target="_top" xlink:title="Implementation of the US driver — the HC&#45;SR04 ultrasonic rangefinders.">
<polygon fill="white" stroke="#666666" points="141.25,-20.75 0,-20.75 0,0 141.25,0 141.25,-20.75"/>
<text xml:space="preserve" text-anchor="middle" x="70.62" y="-7.25" font-family="Helvetica,sans-Serif" font-size="10.00">V2V&#45;STM32/Src/US_prog.c</text>
</a>
</g>
</g>
<!-- Node1&#45;&gt;Node4 -->
<g id="edge16_Node000001_Node000004" class="edge">
<title>Node1&#45;&gt;Node4</title>
<g id="a_edge16_Node000001_Node000004"><a xlink:title=" ">
<path fill="none" stroke="#63b8ff" d="M328.65,-198.41C289.49,-190.1 241.38,-177.5 200.62,-159.75 148.29,-136.96 126.51,-136.19 92.62,-90.25 76.93,-68.97 72.43,-36.97 71.14,-21.07"/>
<polygon fill="#63b8ff" stroke="#63b8ff" points="327.72,-201.8 338.22,-200.39 329.13,-194.94 327.72,-201.8"/>
</a>
</g>
</g>
<!-- Node6 -->
<g id="Node000006" class="node">
<title>Node6</title>
<g id="a_Node000006"><a xlink:href="TIM__interface_8h.html" target="_top" xlink:title="Timer (TIM) Interface Header File.">
<polygon fill="white" stroke="#666666" points="375.88,-159.75 229.38,-159.75 229.38,-126.25 375.88,-126.25 375.88,-159.75"/>
<text xml:space="preserve" text-anchor="start" x="237.38" y="-146.25" font-family="Helvetica,sans-Serif" font-size="10.00">V2V&#45;STM32/Inc/Drivers</text>
<text xml:space="preserve" text-anchor="middle" x="302.62" y="-133.5" font-family="Helvetica,sans-Serif" font-size="10.00">/MCAL/TIM/TIM_interface.h</text>
</a>
</g>
</g>
<!-- Node1&#45;&gt;Node6 -->
<g id="edge5_Node000001_Node000006" class="edge">
<title>Node1&#45;&gt;Node6</title>
<g id="a_edge5_Node000001_Node000006"><a xlink:title=" ">
<path fill="none" stroke="#63b8ff" d="M369.99,-189.02C355.79,-179.53 339.58,-168.7 326.62,-160.04"/>
<polygon fill="#63b8ff" stroke="#63b8ff" points="367.92,-191.84 378.17,-194.49 371.81,-186.02 367.92,-191.84"/>
</a>
</g>
</g>
<!-- Node8 -->
<g id="Node000008" class="node">
<title>Node8</title>
<g id="a_Node000008"><a xlink:href="TIM__program_8c.html" target="_top" xlink:title="Timer (TIM) Program File.">
<polygon fill="white" stroke="#666666" points="683.25,-83.88 518,-83.88 518,-63.12 683.25,-63.12 683.25,-83.88"/>
<text xml:space="preserve" text-anchor="middle" x="600.62" y="-70.38" font-family="Helvetica,sans-Serif" font-size="10.00">V2V&#45;STM32/Src/TIM_program.c</text>
</a>
</g>
</g>
<!-- Node1&#45;&gt;Node8 -->
<g id="edge15_Node000001_Node000008" class="edge">
<title>Node1&#45;&gt;Node8</title>
<g id="a_edge15_Node000001_Node000008"><a xlink:title=" ">
<path fill="none" stroke="#63b8ff" d="M402.86,-184.17C403.81,-165.59 408.16,-141.67 422.62,-126.25 439.36,-108.41 498.97,-93.51 544.65,-84.35"/>
<polygon fill="#63b8ff" stroke="#63b8ff" points="399.36,-183.89 402.67,-193.95 406.36,-184.02 399.36,-183.89"/>
</a>
</g>
</g>
<!-- Node9 -->
<g id="Node000009" class="node">
<title>Node9</title>
<g id="a_Node000009"><a xlink:href="GPIO__prog_8c.html" target="_top" xlink:title="Implementation of the GPIO driver — the general&#45;purpose I/O ports.">
<polygon fill="white" stroke="#666666" points="547.88,-159.75 431.38,-159.75 431.38,-126.25 547.88,-126.25 547.88,-159.75"/>
<text xml:space="preserve" text-anchor="start" x="439.38" y="-146.25" font-family="Helvetica,sans-Serif" font-size="10.00">V2V&#45;STM32/Src/GPIO</text>
<text xml:space="preserve" text-anchor="middle" x="489.62" y="-133.5" font-family="Helvetica,sans-Serif" font-size="10.00">_prog.c</text>
</a>
</g>
</g>
<!-- Node1&#45;&gt;Node9 -->
<g id="edge12_Node000001_Node000009" class="edge">
<title>Node1&#45;&gt;Node9</title>
<g id="a_edge12_Node000001_Node000009"><a xlink:title=" ">
<path fill="none" stroke="#63b8ff" d="M432.75,-188.64C444.69,-179.27 458.22,-168.65 469.09,-160.12"/>
<polygon fill="#63b8ff" stroke="#63b8ff" points="430.9,-185.64 425.2,-194.57 435.22,-191.15 430.9,-185.64"/>
</a>
</g>
</g>
<!-- Node10 -->
<g id="Node000010" class="node">
<title>Node10</title>
<g id="a_Node000010"><a xlink:href="RCC__program_8c.html" target="_top" xlink:title="Implementation of the RCC driver — reset and clock control.">
<polygon fill="white" stroke="#666666" points="733.38,-153.38 565.88,-153.38 565.88,-132.62 733.38,-132.62 733.38,-153.38"/>
<text xml:space="preserve" text-anchor="middle" x="649.62" y="-139.88" font-family="Helvetica,sans-Serif" font-size="10.00">V2V&#45;STM32/Src/RCC_program.c</text>
</a>
</g>
</g>
<!-- Node1&#45;&gt;Node10 -->
<g id="edge13_Node000001_Node000010" class="edge">
<title>Node1&#45;&gt;Node10</title>
<g id="a_edge13_Node000001_Node000010"><a xlink:title=" ">
<path fill="none" stroke="#63b8ff" d="M473.58,-192.3C519.27,-179.77 577.02,-163.92 613.66,-153.87"/>
<polygon fill="#63b8ff" stroke="#63b8ff" points="472.73,-188.91 464.01,-194.93 474.58,-195.66 472.73,-188.91"/>
</a>
</g>
</g>
<!-- Node11 -->
<g id="Node000011" class="node">
<title>Node11</title>
<g id="a_Node000011"><a xlink:href="SYSCFG__program_8c.html" target="_top" xlink:title="Implementation of the SYSCFG driver — the system configuration controller.">
<polygon fill="white" stroke="#666666" points="882,-159.75 751.25,-159.75 751.25,-126.25 882,-126.25 882,-159.75"/>
<text xml:space="preserve" text-anchor="start" x="759.25" y="-146.25" font-family="Helvetica,sans-Serif" font-size="10.00">V2V&#45;STM32/Src/SYSCFG</text>
<text xml:space="preserve" text-anchor="middle" x="816.62" y="-133.5" font-family="Helvetica,sans-Serif" font-size="10.00">_program.c</text>
</a>
</g>
</g>
<!-- Node1&#45;&gt;Node11 -->
<g id="edge14_Node000001_Node000011" class="edge">
<title>Node1&#45;&gt;Node11</title>
<g id="a_edge14_Node000001_Node000011"><a xlink:title=" ">
<path fill="none" stroke="#63b8ff" d="M478.69,-201.32C547.53,-191.68 652.19,-176.26 742.62,-159.75 745.34,-159.25 748.1,-158.73 750.9,-158.2"/>
<polygon fill="#63b8ff" stroke="#63b8ff" points="478.46,-197.82 469.04,-202.67 479.43,-204.75 478.46,-197.82"/>
</a>
</g>
</g>
<!-- Node3 -->
<g id="Node000003" class="node">
<title>Node3</title>
<g id="a_Node000003"><a xlink:href="System_8c.html" target="_top" xlink:title="System initialization and RTOS setup.">
<polygon fill="white" stroke="#666666" points="440.38,-20.75 302.88,-20.75 302.88,0 440.38,0 440.38,-20.75"/>
<text xml:space="preserve" text-anchor="middle" x="371.62" y="-7.25" font-family="Helvetica,sans-Serif" font-size="10.00">V2V&#45;STM32/Src/System.c</text>
</a>
</g>
</g>
<!-- Node2&#45;&gt;Node3 -->
<g id="edge2_Node000002_Node000003" class="edge">
<title>Node2&#45;&gt;Node3</title>
<g id="a_edge2_Node000002_Node000003"><a xlink:title=" ">
<path fill="none" stroke="#63b8ff" d="M257.23,-52.5C286.46,-42 320.98,-29.58 344.4,-21.17"/>
<polygon fill="#63b8ff" stroke="#63b8ff" points="256.39,-49.09 248.16,-55.77 258.75,-55.68 256.39,-49.09"/>
</a>
</g>
</g>
<!-- Node2&#45;&gt;Node4 -->
<g id="edge3_Node000002_Node000004" class="edge">
<title>Node2&#45;&gt;Node4</title>
<g id="a_edge3_Node000002_Node000004"><a xlink:title=" ">
<path fill="none" stroke="#63b8ff" d="M156.69,-51.53C134.62,-41.24 109.1,-29.33 91.61,-21.17"/>
<polygon fill="#63b8ff" stroke="#63b8ff" points="154.95,-54.58 165.49,-55.64 157.91,-48.24 154.95,-54.58"/>
</a>
</g>
</g>
<!-- Node5 -->
<g id="Node000005" class="node">
<title>Node5</title>
<g id="a_Node000005"><a xlink:href="main_8c.html" target="_top" xlink:title="Entry point, the six FreeRTOS tasks, and the watchdog liveness net.">
<polygon fill="white" stroke="#666666" points="284.38,-20.75 158.88,-20.75 158.88,0 284.38,0 284.38,-20.75"/>
<text xml:space="preserve" text-anchor="middle" x="221.62" y="-7.25" font-family="Helvetica,sans-Serif" font-size="10.00">V2V&#45;STM32/Src/main.c</text>
</a>
</g>
</g>
<!-- Node2&#45;&gt;Node5 -->
<g id="edge4_Node000002_Node000005" class="edge">
<title>Node2&#45;&gt;Node5</title>
<g id="a_edge4_Node000002_Node000005"><a xlink:title=" ">
<path fill="none" stroke="#63b8ff" d="M210.45,-45.52C213.28,-36.87 216.24,-27.82 218.4,-21.22"/>
<polygon fill="#63b8ff" stroke="#63b8ff" points="207.13,-44.41 207.35,-55 213.79,-46.59 207.13,-44.41"/>
</a>
</g>
</g>
<!-- Node6&#45;&gt;Node2 -->
<g id="edge6_Node000006_Node000002" class="edge">
<title>Node6&#45;&gt;Node2</title>
<g id="a_edge6_Node000006_Node000002"><a xlink:title=" ">
<path fill="none" stroke="#63b8ff" d="M268.99,-119.52C254.79,-110.03 238.58,-99.2 225.62,-90.54"/>
<polygon fill="#63b8ff" stroke="#63b8ff" points="266.92,-122.34 277.17,-124.99 270.81,-116.52 266.92,-122.34"/>
</a>
</g>
</g>
<!-- Node6&#45;&gt;Node3 -->
<g id="edge8_Node000006_Node000003" class="edge">
<title>Node6&#45;&gt;Node3</title>
<g id="a_edge8_Node000006_Node000003"><a xlink:title=" ">
<path fill="none" stroke="#63b8ff" d="M316.32,-116.08C331.71,-86.95 355.92,-41.11 366.45,-21.18"/>
<polygon fill="#63b8ff" stroke="#63b8ff" points="313.37,-114.17 311.79,-124.64 319.56,-117.44 313.37,-114.17"/>
</a>
</g>
</g>
<!-- Node6&#45;&gt;Node4 -->
<g id="edge10_Node000006_Node000004" class="edge">
<title>Node6&#45;&gt;Node4</title>
<g id="a_edge10_Node000006_Node000004"><a xlink:title=" ">
<path fill="none" stroke="#63b8ff" d="M217.84,-128.72C187.41,-121.04 154.11,-109.01 127.62,-90.25 101.71,-71.89 83.11,-37.96 75.07,-21.23"/>
<polygon fill="#63b8ff" stroke="#63b8ff" points="216.89,-132.09 227.43,-131.01 218.51,-125.29 216.89,-132.09"/>
</a>
</g>
</g>
<!-- Node6&#45;&gt;Node5 -->
<g id="edge11_Node000006_Node000005" class="edge">
<title>Node6&#45;&gt;Node5</title>
<g id="a_edge11_Node000006_Node000005"><a xlink:title=" ">
<path fill="none" stroke="#63b8ff" d="M298.1,-114.81C294.22,-97.16 287.33,-74.26 275.62,-56.75 265.69,-41.89 249.52,-29.22 237.46,-21.08"/>
<polygon fill="#63b8ff" stroke="#63b8ff" points="294.66,-115.46 300.03,-124.58 301.52,-114.09 294.66,-115.46"/>
</a>
</g>
</g>
<!-- Node7 -->
<g id="Node000007" class="node">
<title>Node7</title>
<g id="a_Node000007"><a xlink:href="MPU9250__program_8c.html" target="_top" xlink:title="Professional MPU9250 driver: High&#45;Accuracy Speed (m/s) &amp; Gravity&#45;Compensated Altitude.">
<polygon fill="white" stroke="#666666" points="500.12,-90.25 361.12,-90.25 361.12,-56.75 500.12,-56.75 500.12,-90.25"/>
<text xml:space="preserve" text-anchor="start" x="369.12" y="-76.75" font-family="Helvetica,sans-Serif" font-size="10.00">V2V&#45;STM32/Src/MPU9250</text>
<text xml:space="preserve" text-anchor="middle" x="430.62" y="-64" font-family="Helvetica,sans-Serif" font-size="10.00">_program.c</text>
</a>
</g>
</g>
<!-- Node6&#45;&gt;Node7 -->
<g id="edge7_Node000006_Node000007" class="edge">
<title>Node6&#45;&gt;Node7</title>
<g id="a_edge7_Node000006_Node000007"><a xlink:title=" ">
<path fill="none" stroke="#63b8ff" d="M343.45,-120.47C361.86,-110.76 383.24,-99.49 400.22,-90.54"/>
<polygon fill="#63b8ff" stroke="#63b8ff" points="341.84,-117.37 334.62,-125.13 345.1,-123.56 341.84,-117.37"/>
</a>
</g>
</g>
<!-- Node6&#45;&gt;Node8 -->
<g id="edge9_Node000006_Node000008" class="edge">
<title>Node6&#45;&gt;Node8</title>
<g id="a_edge9_Node000006_Node000008"><a xlink:title=" ">
<path fill="none" stroke="#63b8ff" d="M384.92,-123.36C440.63,-110.74 512.02,-94.57 557.05,-84.37"/>
<polygon fill="#63b8ff" stroke="#63b8ff" points="384.46,-119.87 375.48,-125.5 386.01,-126.7 384.46,-119.87"/>
</a>
</g>
</g>
</g>
</svg>
