<?xml version="1.0" encoding="UTF-8" standalone="no"?>
<!DOCTYPE svg PUBLIC "-//W3C//DTD SVG 1.1//EN"
 "http://www.w3.org/Graphics/SVG/1.1/DTD/svg11.dtd">
<!-- Generated by graphviz version 14.1.4 (20260321.0153)
 -->
<!-- Title: V2V&#45;STM32/Src/SYSCFG_program.c Pages: 1 -->
<!--zoomable 181 -->

<svg id="main" version="1.1" xmlns="http://www.w3.org/2000/svg" xmlns:xlink="http://www.w3.org/1999/xlink" xml:space="preserve" onload="init(evt)">

<style type="text/css"><![CDATA[
.node, .edge {opacity: 0.7;}
.node.selected, .edge.selected {opacity: 1;}
.edge:hover path { stroke: red; }
.edge:hover polygon { stroke: red; fill: red; }
]]></style>

<defs>
  <circle id="rim" cx="0" cy="0" r="7"/>
  <circle id="rim2" cx="0" cy="0" r="3.5"/>
  <g id="zoomPlus">
    <use xlink:href="#rim" fill="#404040"><set attributeName="fill" to="#808080" begin="zoomplus.mouseover" end="zoomplus.mouseout"/></use>
    <path d="M-4,0h8M0,-4v8" fill="none" stroke="white" stroke-width="1.5" pointer-events="none"/>
  </g>
  <g id="zoomMin">
    <use xlink:href="#rim" fill="#404040"><set attributeName="fill" to="#808080" begin="zoomminus.mouseover" end="zoomminus.mouseout"/></use>
    <path d="M-4,0h8" fill="none" stroke="white" stroke-width="1.5" pointer-events="none"/>
  </g>
  <g id="arrowUp" transform="translate(30 24)">
    <use xlink:href="#rim"/>
    <path pointer-events="none" fill="none" stroke="white" stroke-width="1.5" d="M0,-3.0v7 M-2.5,-0.5L0,-3.0L2.5,-0.5"/>
  </g>
  <g id="arrowRight" transform="rotate(90) translate(36 -43)">
    <use xlink:href="#rim"/>
    <path pointer-events="none" fill="none" stroke="white" stroke-width="1.5" d="M0,-3.0v7 M-2.5,-0.5L0,-3.0L2.5,-0.5"/>
  </g>
  <g id="arrowDown" transform="rotate(180) translate(-30 -48)">
    <use xlink:href="#rim"/>
    <path pointer-events="none" fill="none" stroke="white" stroke-width="1.5" d="M0,-3.0v7 M-2.5,-0.5L0,-3.0L2.5,-0.5"/>
  </g>
  <g id="arrowLeft" transform="rotate(270) translate(-36 17)">
    <use xlink:href="#rim"/>
    <path pointer-events="none" fill="none" stroke="white" stroke-width="1.5" d="M0,-3.0v7 M-2.5,-0.5L0,-3.0L2.5,-0.5"/>
  </g>
  <g id="resetDef">
    <use xlink:href="#rim2" fill="#404040"><set attributeName="fill" to="#808080" begin="reset.mouseover" end="reset.mouseout"/></use>
  </g>
</defs>
<script type="application/ecmascript">
var viewWidth = 777;
var viewHeight = 181;
var sectionId = 'dynsection-0';
</script>
<script type="application/ecmascript" xlink:href="svg.min.js"/>
<svg id="graph" class="graph">
<g id="viewport">
<title>V2V&#45;STM32/Src/SYSCFG_program.c</title>
<!-- Node1 -->
<g id="Node000001" class="node">
<title>Node1</title>
<g id="a_Node000001"><a xlink:title="Implementation of the SYSCFG driver — the system configuration controller.">
<polygon fill="#999999" stroke="#666666" points="410.88,-172.5 280.12,-172.5 280.12,-139 410.88,-139 410.88,-172.5"/>
<text xml:space="preserve" text-anchor="start" x="288.12" y="-159" font-family="Helvetica,sans-Serif" font-size="10.00">V2V&#45;STM32/Src/SYSCFG</text>
<text xml:space="preserve" text-anchor="middle" x="345.5" y="-146.25" font-family="Helvetica,sans-Serif" font-size="10.00">_program.c</text>
</a>
</g>
</g>
<!-- Node2 -->
<g id="Node000002" class="node">
<title>Node2</title>
<g id="a_Node000002"><a xlink:title=" ">
<polygon fill="#e0e0e0" stroke="#999999" points="151.88,-27.12 99.12,-27.12 99.12,-6.38 151.88,-6.38 151.88,-27.12"/>
<text xml:space="preserve" text-anchor="middle" x="125.5" y="-13.62" font-family="Helvetica,sans-Serif" font-size="10.00">stdint.h</text>
</a>
</g>
</g>
<!-- Node1&#45;&gt;Node2 -->
<g id="edge1_Node000001_Node000002" class="edge">
<title>Node1&#45;&gt;Node2</title>
<g id="a_edge1_Node000001_Node000002"><a xlink:title=" ">
<path fill="none" stroke="#63b8ff" d="M279.81,-145.38C228.63,-136.75 163.23,-122.35 144.5,-103 128.06,-86.01 124.6,-58.09 124.4,-38.86"/>
<polygon fill="#63b8ff" stroke="#63b8ff" points="127.9,-39.01 124.62,-28.94 120.9,-38.85 127.9,-39.01"/>
</a>
</g>
</g>
<!-- Node3 -->
<g id="Node000003" class="node">
<title>Node3</title>
<g id="a_Node000003"><a xlink:href="STM32F446xx_8h.html" target="_top" xlink:title="STM32F446RE register map: peripheral base addresses, register layout structs, and the typed pointers ...">
<polygon fill="white" stroke="#666666" points="97,-103 0,-103 0,-69.5 97,-69.5 97,-103"/>
<text xml:space="preserve" text-anchor="start" x="8" y="-89.5" font-family="Helvetica,sans-Serif" font-size="10.00">../Inc/Drivers/LIB</text>
<text xml:space="preserve" text-anchor="middle" x="48.5" y="-76.75" font-family="Helvetica,sans-Serif" font-size="10.00">/STM32F446xx.h</text>
</a>
</g>
</g>
<!-- Node1&#45;&gt;Node3 -->
<g id="edge2_Node000001_Node000003" class="edge">
<title>Node1&#45;&gt;Node3</title>
<g id="a_edge2_Node000001_Node000003"><a xlink:title=" ">
<path fill="none" stroke="#63b8ff" d="M279.83,-140.73C232.87,-130.58 168.2,-116.35 111.5,-103 110.49,-102.76 109.47,-102.52 108.45,-102.28"/>
<polygon fill="#63b8ff" stroke="#63b8ff" points="109.32,-98.89 98.78,-99.95 107.68,-105.69 109.32,-98.89"/>
</a>
</g>
</g>
<!-- Node4 -->
<g id="Node000004" class="node">
<title>Node4</title>
<g id="a_Node000004"><a xlink:href="STD__MACROS_8h.html" target="_top" xlink:title="Bit&#45;manipulation macros used by every register access in the MCAL.">
<polygon fill="white" stroke="#666666" points="249.25,-103 153.75,-103 153.75,-69.5 249.25,-69.5 249.25,-103"/>
<text xml:space="preserve" text-anchor="start" x="161.75" y="-89.5" font-family="Helvetica,sans-Serif" font-size="10.00">../Inc/Drivers/LIB</text>
<text xml:space="preserve" text-anchor="middle" x="201.5" y="-76.75" font-family="Helvetica,sans-Serif" font-size="10.00">/STD_MACROS.h</text>
</a>
</g>
</g>
<!-- Node1&#45;&gt;Node4 -->
<g id="edge4_Node000001_Node000004" class="edge">
<title>Node1&#45;&gt;Node4</title>
<g id="a_edge4_Node000001_Node000004"><a xlink:title=" ">
<path fill="none" stroke="#63b8ff" d="M311.01,-138.58C291.51,-129.44 266.91,-117.91 245.97,-108.09"/>
<polygon fill="#63b8ff" stroke="#63b8ff" points="247.62,-105 237.08,-103.93 244.65,-111.34 247.62,-105"/>
</a>
</g>
</g>
<!-- Node5 -->
<g id="Node000005" class="node">
<title>Node5</title>
<g id="a_Node000005"><a xlink:href="ErrTypes_8h.html" target="_top" xlink:title="Project&#45;wide return codes and boolean&#45;style constants.">
<polygon fill="white" stroke="#666666" points="609.25,-33.5 513.75,-33.5 513.75,0 609.25,0 609.25,-33.5"/>
<text xml:space="preserve" text-anchor="start" x="521.75" y="-20" font-family="Helvetica,sans-Serif" font-size="10.00">../Inc/Drivers/LIB</text>
<text xml:space="preserve" text-anchor="middle" x="561.5" y="-7.25" font-family="Helvetica,sans-Serif" font-size="10.00">/ErrTypes.h</text>
</a>
</g>
</g>
<!-- Node1&#45;&gt;Node5 -->
<g id="edge5_Node000001_Node000005" class="edge">
<title>Node1&#45;&gt;Node5</title>
<g id="a_edge5_Node000001_Node000005"><a xlink:title=" ">
<path fill="none" stroke="#63b8ff" d="M411.36,-151.21C522.13,-144.56 735.94,-128.57 758.5,-103 801.69,-54.07 693.59,-32.19 620.98,-23.25"/>
<polygon fill="#63b8ff" stroke="#63b8ff" points="621.51,-19.78 611.17,-22.1 620.69,-26.74 621.51,-19.78"/>
</a>
</g>
</g>
<!-- Node6 -->
<g id="Node000006" class="node">
<title>Node6</title>
<g id="a_Node000006"><a xlink:href="SYSCFG__private_8h.html" target="_top" xlink:title="Register bit positions and internals of the SYSCFG driver — not a public header.">
<polygon fill="white" stroke="#666666" points="589.12,-103 441.88,-103 441.88,-69.5 589.12,-69.5 589.12,-103"/>
<text xml:space="preserve" text-anchor="start" x="449.88" y="-89.5" font-family="Helvetica,sans-Serif" font-size="10.00">../Inc/Drivers/MCAL</text>
<text xml:space="preserve" text-anchor="middle" x="515.5" y="-76.75" font-family="Helvetica,sans-Serif" font-size="10.00">/SYSCFG/SYSCFG_private.h</text>
</a>
</g>
</g>
<!-- Node1&#45;&gt;Node6 -->
<g id="edge6_Node000001_Node000006" class="edge">
<title>Node1&#45;&gt;Node6</title>
<g id="a_edge6_Node000001_Node000006"><a xlink:title=" ">
<path fill="none" stroke="#63b8ff" d="M386.22,-138.58C409.68,-129.27 439.39,-117.47 464.41,-107.53"/>
<polygon fill="#63b8ff" stroke="#63b8ff" points="465.41,-110.9 473.41,-103.96 462.83,-104.4 465.41,-110.9"/>
</a>
</g>
</g>
<!-- Node7 -->
<g id="Node000007" class="node">
<title>Node7</title>
<g id="a_Node000007"><a xlink:href="SYSCFG__config_8h.html" target="_top" xlink:title="Compile&#45;time configuration for the SYSCFG driver — the system configuration controller.">
<polygon fill="white" stroke="#666666" points="749.5,-103 607.5,-103 607.5,-69.5 749.5,-69.5 749.5,-103"/>
<text xml:space="preserve" text-anchor="start" x="615.5" y="-89.5" font-family="Helvetica,sans-Serif" font-size="10.00">../Inc/Drivers/MCAL</text>
<text xml:space="preserve" text-anchor="middle" x="678.5" y="-76.75" font-family="Helvetica,sans-Serif" font-size="10.00">/SYSCFG/SYSCFG_config.h</text>
</a>
</g>
</g>
<!-- Node1&#45;&gt;Node7 -->
<g id="edge7_Node000001_Node000007" class="edge">
<title>Node1&#45;&gt;Node7</title>
<g id="a_edge7_Node000001_Node000007"><a xlink:title=" ">
<path fill="none" stroke="#63b8ff" d="M411.29,-141.41C464.24,-130.68 538.97,-115.53 595.94,-103.99"/>
<polygon fill="#63b8ff" stroke="#63b8ff" points="596.49,-107.44 605.6,-102.03 595.1,-100.58 596.49,-107.44"/>
</a>
</g>
</g>
<!-- Node8 -->
<g id="Node000008" class="node">
<title>Node8</title>
<g id="a_Node000008"><a xlink:href="SYSCFG__interface_8h.html" target="_top" xlink:title="Public API of the SYSCFG driver — the system configuration controller.">
<polygon fill="white" stroke="#666666" points="423.62,-103 267.38,-103 267.38,-69.5 423.62,-69.5 423.62,-103"/>
<text xml:space="preserve" text-anchor="start" x="275.38" y="-89.5" font-family="Helvetica,sans-Serif" font-size="10.00">../Inc/Drivers/MCAL</text>
<text xml:space="preserve" text-anchor="middle" x="345.5" y="-76.75" font-family="Helvetica,sans-Serif" font-size="10.00">/SYSCFG/SYSCFG_interface.h</text>
</a>
</g>
</g>
<!-- Node1&#45;&gt;Node8 -->
<g id="edge8_Node000001_Node000008" class="edge">
<title>Node1&#45;&gt;Node8</title>
<g id="a_edge8_Node000001_Node000008"><a xlink:title=" ">
<path fill="none" stroke="#63b8ff" d="M345.5,-138.75C345.5,-131.52 345.5,-122.78 345.5,-114.56"/>
<polygon fill="#63b8ff" stroke="#63b8ff" points="349,-114.65 345.5,-104.65 342,-114.65 349,-114.65"/>
</a>
</g>
</g>
<!-- Node3&#45;&gt;Node2 -->
<g id="edge3_Node000003_Node000002" class="edge">
<title>Node3&#45;&gt;Node2</title>
<g id="a_edge3_Node000003_Node000002"><a xlink:title=" ">
<path fill="none" stroke="#63b8ff" d="M66.75,-69.25C78.51,-58.94 93.81,-45.53 105.84,-34.98"/>
<polygon fill="#63b8ff" stroke="#63b8ff" points="107.95,-37.79 113.16,-28.57 103.33,-32.53 107.95,-37.79"/>
</a>
</g>
</g>
<!-- Node8&#45;&gt;Node2 -->
<g id="edge9_Node000008_Node000002" class="edge">
<title>Node8&#45;&gt;Node2</title>
<g id="a_edge9_Node000008_Node000002"><a xlink:title=" ">
<path fill="none" stroke="#63b8ff" d="M292.8,-69.08C252.77,-56.8 198.69,-40.21 162.99,-29.25"/>
<polygon fill="#63b8ff" stroke="#63b8ff" points="164.12,-25.94 153.53,-26.35 162.06,-32.63 164.12,-25.94"/>
</a>
</g>
</g>
<!-- Node8&#45;&gt;Node5 -->
<g id="edge10_Node000008_Node000005" class="edge">
<title>Node8&#45;&gt;Node5</title>
<g id="a_edge10_Node000008_Node000005"><a xlink:title=" ">
<path fill="none" stroke="#63b8ff" d="M397.24,-69.08C428.97,-59.17 469.7,-46.44 502.66,-36.14"/>
<polygon fill="#63b8ff" stroke="#63b8ff" points="503.57,-39.52 512.07,-33.2 501.48,-32.84 503.57,-39.52"/>
</a>
</g>
</g>
</g>
</svg>

<g id="navigator" transform="translate(0 0)" fill="#404254">
  <rect fill="#f2f5e9" fill-opacity="0.5" stroke="#606060" stroke-width=".5" x="0" y="0" width="60" height="60"/>
  <use id="zoomplus" xlink:href="#zoomPlus" x="17" y="9" onmousedown="handleZoom(evt,'in')"/>
  <use id="zoomminus" xlink:href="#zoomMin" x="42" y="9" onmousedown="handleZoom(evt,'out')"/>
  <use id="reset" xlink:href="#resetDef" x="30" y="36" onmousedown="handleReset()"/>
   <use id="arrowup" xlink:href="#arrowUp" x="0" y="0" onmousedown="handlePan(0,-1)"/>
  <use id="arrowright" xlink:href="#arrowRight" x="0" y="0" onmousedown="handlePan(1,0)"/>
  <use id="arrowdown" xlink:href="#arrowDown" x="0" y="0" onmousedown="handlePan(0,1)"/>
  <use id="arrowleft" xlink:href="#arrowLeft" x="0" y="0" onmousedown="handlePan(-1,0)"/>
</g>
<svg viewBox="0 0 15 15" width="100%" height="30px" preserveAspectRatio="xMaxYMin meet">
 <g id="arrow_out" transform="scale(0.3 0.3)">
  <a xlink:href="SYSCFG__program_8c__incl_org.svg" target="_base">
   <rect id="button" ry="5" rx="5" y="6" x="6" height="38" width="38"
        fill="#f2f5e9" fill-opacity="0.5" stroke="#606060" stroke-width="1.0"/>
   <path id="arrow"
     d="M 11.500037,31.436501 C 11.940474,20.09759 22.043105,11.32322 32.158766,21.979434 L 37.068811,17.246167 C 37.068811,17.246167 37.088388,32 37.088388,32 L 22.160133,31.978069 C 22.160133,31.978069 26.997745,27.140456 26.997745,27.140456 C 18.528582,18.264221 13.291696,25.230495 11.500037,31.436501 z"
     style="fill:#404040;"/>
  </a>
 </g>
</svg>

<style type='text/css'>
<![CDATA[
[data-mouse-over-selected='false'] { opacity: 0.7; }
[data-mouse-over-selected='true']  { opacity: 1.0; }
]]>
</style>
<script type="application/ecmascript"><![CDATA[
document.addEventListener('DOMContentLoaded', (event) => {
  highlightEdges();
  highlightAdjacentNodes();
});
]]></script>
</svg>
