<?xml version="1.0" encoding="UTF-8" standalone="no"?>
<!DOCTYPE svg PUBLIC "-//W3C//DTD SVG 1.1//EN"
 "http://www.w3.org/Graphics/SVG/1.1/DTD/svg11.dtd">
<!-- Generated by graphviz version 14.1.4 (20260321.0153)
 -->
<!-- Title: TIM_vDelayUs Pages: 1 -->
<svg width="605pt" height="29pt"
 viewBox="0.00 0.00 605.00 29.00" xmlns="http://www.w3.org/2000/svg" xmlns:xlink="http://www.w3.org/1999/xlink">
<g id="graph0" class="graph" transform="scale(1 1) rotate(0) translate(4 24.75)">
<title>TIM_vDelayUs</title>
<!-- Node1 -->
<g id="Node000001" class="node">
<title>Node1</title>
<g id="a_Node000001"><a xlink:title="Blocking Delay in Microseconds using a specific Timer.">
<polygon fill="#999999" stroke="#666666" points="596.75,-20.75 510.25,-20.75 510.25,0 596.75,0 596.75,-20.75"/>
<text xml:space="preserve" text-anchor="middle" x="553.5" y="-7.25" font-family="Helvetica,sans-Serif" font-size="10.00">TIM_vDelayUs</text>
</a>
</g>
</g>
<!-- Node2 -->
<g id="Node000002" class="node">
<title>Node2</title>
<g id="a_Node000002"><a xlink:href="US__prog_8c.html#adc51941ea05da40c9e35a99928a4ac37" target="_top" xlink:title="Fire the trigger pulse that starts one sensor&#39;s measurement.">
<polygon fill="white" stroke="#666666" points="474.25,-20.75 376.5,-20.75 376.5,0 474.25,0 474.25,-20.75"/>
<text xml:space="preserve" text-anchor="middle" x="425.38" y="-7.25" font-family="Helvetica,sans-Serif" font-size="10.00">US_vSendTrigger</text>
</a>
</g>
</g>
<!-- Node1&#45;&gt;Node2 -->
<g id="edge1_Node000001_Node000002" class="edge">
<title>Node1&#45;&gt;Node2</title>
<g id="a_edge1_Node000001_Node000002"><a xlink:title=" ">
<path fill="none" stroke="#63b8ff" d="M498.43,-10.38C490.53,-10.38 482.45,-10.38 474.68,-10.38"/>
<polygon fill="#63b8ff" stroke="#63b8ff" points="498.29,-13.88 508.29,-10.38 498.29,-6.88 498.29,-13.88"/>
</a>
</g>
</g>
<!-- Node3 -->
<g id="Node000003" class="node">
<title>Node3</title>
<g id="a_Node000003"><a xlink:href="US__prog_8c.html#a49bd64d408631fd63886cbc413453e08" target="_top" xlink:title="Trigger sensor and measure distance in centimeters (blocking).">
<polygon fill="white" stroke="#666666" points="340.5,-20.75 200,-20.75 200,0 340.5,0 340.5,-20.75"/>
<text xml:space="preserve" text-anchor="middle" x="270.25" y="-7.25" font-family="Helvetica,sans-Serif" font-size="10.00">US_u16ReadDistance_cm</text>
</a>
</g>
</g>
<!-- Node2&#45;&gt;Node3 -->
<g id="edge2_Node000002_Node000003" class="edge">
<title>Node2&#45;&gt;Node3</title>
<g id="a_edge2_Node000002_Node000003"><a xlink:title=" ">
<path fill="none" stroke="#63b8ff" d="M365.03,-10.38C357.15,-10.38 349.01,-10.38 340.98,-10.38"/>
<polygon fill="#63b8ff" stroke="#63b8ff" points="364.83,-13.88 374.83,-10.38 364.83,-6.88 364.83,-13.88"/>
</a>
</g>
</g>
<!-- Node4 -->
<g id="Node000004" class="node">
<title>Node4</title>
<g id="a_Node000004"><a xlink:href="main_8c.html#a6124e00be85460e2af1224524c6c2278" target="_top" xlink:title="Reads ALL 6 ultrasonics + MPU9250 every cycle, then a small gap.">
<polygon fill="white" stroke="#666666" points="164,-20.75 76.75,-20.75 76.75,0 164,0 164,-20.75"/>
<text xml:space="preserve" text-anchor="middle" x="120.38" y="-7.25" font-family="Helvetica,sans-Serif" font-size="10.00">vTask_Sensors</text>
</a>
</g>
</g>
<!-- Node3&#45;&gt;Node4 -->
<g id="edge3_Node000003_Node000004" class="edge">
<title>Node3&#45;&gt;Node4</title>
<g id="a_edge3_Node000003_Node000004"><a xlink:title=" ">
<path fill="none" stroke="#63b8ff" d="M188.4,-10.38C180.18,-10.38 172.07,-10.38 164.49,-10.38"/>
<polygon fill="#63b8ff" stroke="#63b8ff" points="188.13,-13.88 198.13,-10.38 188.13,-6.88 188.13,-13.88"/>
</a>
</g>
</g>
<!-- Node5 -->
<g id="Node000005" class="node">
<title>Node5</title>
<g id="a_Node000005"><a xlink:href="main_8c.html#a840291bc02cba5474a4cb46a9b9566fe" target="_top" xlink:title="Firmware entry point: bring up the board, create the tasks, start the OS.">
<polygon fill="white" stroke="#666666" points="40.75,-20.75 0,-20.75 0,0 40.75,0 40.75,-20.75"/>
<text xml:space="preserve" text-anchor="middle" x="20.38" y="-7.25" font-family="Helvetica,sans-Serif" font-size="10.00">main</text>
</a>
</g>
</g>
<!-- Node4&#45;&gt;Node5 -->
<g id="edge4_Node000004_Node000005" class="edge">
<title>Node4&#45;&gt;Node5</title>
<g id="a_edge4_Node000004_Node000005"><a xlink:title=" ">
<path fill="none" stroke="#63b8ff" d="M65.06,-10.38C56.46,-10.38 48.09,-10.38 41.01,-10.38"/>
<polygon fill="#63b8ff" stroke="#63b8ff" points="64.88,-13.88 74.88,-10.38 64.88,-6.88 64.88,-13.88"/>
</a>
</g>
</g>
</g>
</svg>
