<?xml version="1.0" encoding="UTF-8" standalone="no"?>
<!DOCTYPE svg PUBLIC "-//W3C//DTD SVG 1.1//EN"
 "http://www.w3.org/Graphics/SVG/1.1/DTD/svg11.dtd">
<!-- Generated by graphviz version 14.1.4 (20260321.0153)
 -->
<!-- Title: TIM_vStart Pages: 1 -->
<svg width="367pt" height="48pt"
 viewBox="0.00 0.00 367.00 48.00" xmlns="http://www.w3.org/2000/svg" xmlns:xlink="http://www.w3.org/1999/xlink">
<g id="graph0" class="graph" transform="scale(1 1) rotate(0) translate(4 43.75)">
<title>TIM_vStart</title>
<!-- Node1 -->
<g id="Node000001" class="node">
<title>Node1</title>
<g id="a_Node000001"><a xlink:title="Start the Timer counter.">
<polygon fill="#999999" stroke="#666666" points="358.75,-39.75 290.25,-39.75 290.25,-19 358.75,-19 358.75,-39.75"/>
<text xml:space="preserve" text-anchor="middle" x="324.5" y="-26.25" font-family="Helvetica,sans-Serif" font-size="10.00">TIM_vStart</text>
</a>
</g>
</g>
<!-- Node2 -->
<g id="Node000002" class="node">
<title>Node2</title>
<g id="a_Node000002"><a xlink:href="group__system.html#gae436954cd2bde6634ab271317d2494a7" target="_top" xlink:title="Bring up the board: clock tree, then every MCAL and HAL peripheral.">
<polygon fill="white" stroke="#666666" points="161.75,-39.75 76.75,-39.75 76.75,-19 161.75,-19 161.75,-39.75"/>
<text xml:space="preserve" text-anchor="middle" x="119.25" y="-26.25" font-family="Helvetica,sans-Serif" font-size="10.00">System_setup</text>
</a>
</g>
</g>
<!-- Node1&#45;&gt;Node2 -->
<g id="edge1_Node000001_Node000002" class="edge">
<title>Node1&#45;&gt;Node2</title>
<g id="a_edge1_Node000001_Node000002"><a xlink:title=" ">
<path fill="none" stroke="#63b8ff" d="M278.67,-29.38C243.86,-29.38 195.95,-29.38 161.96,-29.38"/>
<polygon fill="#63b8ff" stroke="#63b8ff" points="278.42,-32.88 288.42,-29.38 278.42,-25.88 278.42,-32.88"/>
</a>
</g>
</g>
<!-- Node4 -->
<g id="Node000004" class="node">
<title>Node4</title>
<g id="a_Node000004"><a xlink:href="US__prog_8c.html#a29b879f76d665878390dd6161d1eea84" target="_top" xlink:title="Initialize GPIO pins and Timer for the given ultrasonic sensor.">
<polygon fill="white" stroke="#666666" points="254.25,-20.75 197.75,-20.75 197.75,0 254.25,0 254.25,-20.75"/>
<text xml:space="preserve" text-anchor="middle" x="226" y="-7.25" font-family="Helvetica,sans-Serif" font-size="10.00">US_vInit</text>
</a>
</g>
</g>
<!-- Node1&#45;&gt;Node4 -->
<g id="edge3_Node000001_Node000004" class="edge">
<title>Node1&#45;&gt;Node4</title>
<g id="a_edge3_Node000001_Node000004"><a xlink:title=" ">
<path fill="none" stroke="#63b8ff" d="M278.93,-20.6C270.66,-18.97 262.25,-17.31 254.67,-15.82"/>
<polygon fill="#63b8ff" stroke="#63b8ff" points="278.05,-23.99 288.53,-22.49 279.4,-17.12 278.05,-23.99"/>
</a>
</g>
</g>
<!-- Node3 -->
<g id="Node000003" class="node">
<title>Node3</title>
<g id="a_Node000003"><a xlink:href="main_8c.html#a840291bc02cba5474a4cb46a9b9566fe" target="_top" xlink:title="Firmware entry point: bring up the board, create the tasks, start the OS.">
<polygon fill="white" stroke="#666666" points="40.75,-39.75 0,-39.75 0,-19 40.75,-19 40.75,-39.75"/>
<text xml:space="preserve" text-anchor="middle" x="20.38" y="-26.25" font-family="Helvetica,sans-Serif" font-size="10.00">main</text>
</a>
</g>
</g>
<!-- Node2&#45;&gt;Node3 -->
<g id="edge2_Node000002_Node000003" class="edge">
<title>Node2&#45;&gt;Node3</title>
<g id="a_edge2_Node000002_Node000003"><a xlink:title=" ">
<path fill="none" stroke="#63b8ff" d="M65.04,-29.38C56.47,-29.38 48.11,-29.38 41.03,-29.38"/>
<polygon fill="#63b8ff" stroke="#63b8ff" points="64.81,-32.88 74.81,-29.38 64.81,-25.88 64.81,-32.88"/>
</a>
</g>
</g>
<!-- Node4&#45;&gt;Node2 -->
<g id="edge4_Node000004_Node000002" class="edge">
<title>Node4&#45;&gt;Node2</title>
<g id="a_edge4_Node000004_Node000002"><a xlink:title=" ">
<path fill="none" stroke="#63b8ff" d="M186.36,-17.38C178.49,-18.81 170.17,-20.32 162.19,-21.77"/>
<polygon fill="#63b8ff" stroke="#63b8ff" points="186.77,-20.87 195.99,-15.64 185.52,-13.98 186.77,-20.87"/>
</a>
</g>
</g>
</g>
</svg>
